<svg role="img" viewBox="0 0 24 24" xmlns="http://www.w3.org/2000/svg" id="Spoj--Streamline-Simple-Icons" height="24" width="24"><desc>Spoj Streamline Icon: https://streamlinehq.com</desc><title>Sphere Online Judge</title><path d="M11.143 0.056c-0.522 0.127 -0.713 0.219 -2.28 1.114 -0.88 0.506 -1.68 0.957 -1.76 1.008 -0.202 0.113 -0.417 0.236 -0.59 0.337 -0.587 0.337 -3.293 1.893 -3.453 1.973 -1.05 0.581 -1.72 1.453 -2.013 2.587 -0.084 0.34 -0.084 9.532 0 9.865 0.282 1.131 0.957 2 2.013 2.587 0.152 0.084 2.866 1.64 3.453 1.973 0.173 0.102 0.388 0.224 0.59 0.337 0.085 0.051 0.882 0.507 1.774 1.012C10.89 24.005 10.89 24 12.01 24c1.11 0 1.125 -0.004 3 -1.076 0.818 -0.468 1.546 -0.885 1.626 -0.928 0.072 -0.047 0.203 -0.119 0.283 -0.164l0.295 -0.17c0.08 -0.046 0.21 -0.118 0.286 -0.163 0.582 -0.337 3.293 -1.893 3.44 -1.973 1.05 -0.582 1.72 -1.454 2.013 -2.587 0.084 -0.341 0.084 -9.532 0 -9.866 -0.282 -1.13 -0.957 -2 -2.013 -2.586a860.394 860.394 0 0 1 -3.726 -2.137l-0.295 -0.17c-0.08 -0.046 -0.21 -0.118 -0.283 -0.164 -0.076 -0.042 -0.809 -0.46 -1.626 -0.928C13.183 0.047 13.117 0.022 12.09 0.004c-0.51 -0.013 -0.763 0.004 -0.95 0.051zm3.014 4.32c0.838 0.156 2.493 0.759 2.493 0.91 0 0.03 -0.207 0.62 -0.46 1.313 -0.384 1.058 -0.472 1.26 -0.536 1.251 -0.047 0 -0.3 -0.1 -0.566 -0.218 -0.92 -0.4 -1.48 -0.515 -2.546 -0.51 -1.19 0 -1.773 0.21 -2.027 0.732 -0.088 0.186 -0.109 0.287 -0.109 0.548 0 0.414 0.093 0.616 0.421 0.924 0.304 0.279 0.734 0.502 1.507 0.788 2.44 0.899 3.346 1.36 4.026 2.093 0.759 0.806 1.04 1.707 0.995 3.187 -0.021 0.83 -0.101 1.172 -0.41 1.786 -0.64 1.291 -1.92 2.04 -3.906 2.28 -0.472 0.059 -0.813 0.067 -1.706 0.051 -1.135 -0.021 -1.494 -0.059 -2.347 -0.244 -0.801 -0.173 -2.16 -0.696 -2.226 -0.852 -0.018 -0.05 0.838 -2.586 0.893 -2.64 0.01 -0.008 0.212 0.072 0.452 0.182 1.16 0.518 2.04 0.7 3.4 0.704 1.07 0 1.626 -0.131 2.026 -0.494 0.275 -0.244 0.355 -0.434 0.374 -0.894 0.017 -0.371 0.013 -0.406 -0.114 -0.663a1.533 1.533 0 0 0 -0.354 -0.464c-0.304 -0.265 -1.232 -0.717 -2.187 -1.055 -0.953 -0.34 -1.36 -0.51 -1.893 -0.776 -1.176 -0.594 -1.947 -1.453 -2.253 -2.52 -0.088 -0.294 -0.096 -0.417 -0.094 -1.171 0 -0.798 0.01 -0.864 0.12 -1.223 0.35 -1.142 1.032 -1.946 2.12 -2.506a6.482 6.482 0 0 1 1.613 -0.523c0.218 -0.039 0.446 -0.076 0.507 -0.084a21.5 21.5 0 0 1 1.2 -0.005c0.881 0.013 1.19 0.03 1.573 0.101z" fill="#337ab7" stroke-width="1"></path></svg>